<?xml version="1.0" standalone="no"?>
<!DOCTYPE svg PUBLIC "-//W3C//DTD SVG 20010904//EN"
 "http://www.w3.org/TR/2001/REC-SVG-20010904/DTD/svg10.dtd">
<svg version="1.0" xmlns="http://www.w3.org/2000/svg"
 width="423.000000pt" height="590.000000pt" viewBox="0 0 423.000000 590.000000"
 preserveAspectRatio="xMidYMid meet">

<g transform="translate(0.000000,590.000000) scale(0.100000,-0.100000)"
fill="#1338BE" stroke="none">
<path d="M2030 4280 c-106 -13 -277 -56 -402 -101 -259 -92 -529 -297 -684
-517 -67 -94 -175 -311 -207 -412 -78 -253 -89 -476 -36 -734 52 -253 125
-420 265 -606 132 -175 278 -293 489 -395 200 -97 364 -148 585 -182 168 -26
602 -26 750 1 157 28 362 94 458 148 119 66 179 105 246 158 76 60 96 85 96
116 0 9 -57 74 -128 143 -70 69 -178 181 -240 249 -63 67 -121 122 -130 122
-9 0 -60 -29 -113 -65 -166 -110 -325 -155 -553 -155 -282 0 -480 68 -612 212
-44 48 -112 179 -121 234 -5 29 -2 35 19 43 14 5 459 11 1047 13 l1024 5 19
22 c15 20 18 41 18 150 -1 405 -68 659 -249 931 -68 102 -199 242 -289 308
-201 148 -446 251 -707 297 -107 19 -436 28 -545 15z m409 -690 c195 -47 349
-175 422 -350 37 -87 42 -142 16 -167 -17 -17 -54 -18 -595 -14 -660 4 -619
-2 -608 86 9 80 84 220 153 286 62 59 155 118 217 139 126 41 274 49 395 20z"/>
</g>
</svg>
